# xmcd
#
# Track frame offsets:
# 150
# 6565
# 13555
# 21037
# 23820
# 29717
# 34960
# 39472
# 49347
# 56120
# 60800
# 68430
# 74425
# 80445
# 89022
# 96505
# 103172
#
# Disc length: 1420 seconds
#
# Revision: 0
# Processed by: cddbd v1.5.1PL0 Copyright (c) Steve Scherf et al.
# Submitted via: Audion 3.0.2 (http://www.panic.com/audion/)
#
DISCID=e7058a11
DTITLE=Midnight Oil - Scream in Blue - Interview Disc
DYEAR=1900
DGENRE=
TTITLE0=Hirst
TTITLE1=Garrett
TTITLE2=Garrett
TTITLE3=Garrett
TTITLE4=Garrett
TTITLE5=Hirst
TTITLE6=Garrett
TTITLE7=Hirst
TTITLE8=Garrett
TTITLE9=Garrett
TTITLE10=Hirst
TTITLE11=Garrett
TTITLE12=Hirst
TTITLE13=Hirst
TTITLE14=Hirst
TTITLE15=Hirst
TTITLE16=Garrett
EXTD=
EXTT0=
EXTT1=
EXTT2=
EXTT3=
EXTT4=
EXTT5=
EXTT6=
EXTT7=
EXTT8=
EXTT9=
EXTT10=
EXTT11=
EXTT12=
EXTT13=
EXTT14=
EXTT15=
EXTT16=
PLAYORDER=
